<svg width="260" height="190" viewBox="0 0 260 190" fill="none" xmlns="http://www.w3.org/2000/svg">
  <rect width="260" height="190" rx="24" fill="url(#bg)"/>
  <path d="M25 142C72 114 103 168 151 136C190 110 210 119 236 96" stroke="#E0EAFF" stroke-width="10" stroke-linecap="round"/>
  <rect x="36" y="93" width="52" height="43" rx="10" fill="#FFFFFF" stroke="#60A5FA" stroke-width="3"/>
  <rect x="169" y="78" width="56" height="58" rx="12" fill="#FFFFFF" stroke="#8B5CF6" stroke-width="3"/>
  <path d="M52 124V111M65 124V103M78 124V116" stroke="#2563EB" stroke-width="6" stroke-linecap="round"/>
  <path d="M184 118L195 106L204 113L218 96" stroke="#7C3AED" stroke-width="5" stroke-linecap="round" stroke-linejoin="round"/>
  <path d="M130 28L179 50V84C179 117 159 143 130 156C101 143 81 117 81 84V50L130 28Z" fill="#2563EB" opacity="0.14"/>
  <path d="M130 35L169 52.5V84C169 111.5 154.4 132.3 130 144C105.6 132.3 91 111.5 91 84V52.5L130 35Z" fill="url(#shield)"/>
  <path d="M115 90L126 101L148 75" stroke="white" stroke-width="9" stroke-linecap="round" stroke-linejoin="round"/>
  <circle cx="47" cy="67" r="7" fill="#22C55E"/>
  <circle cx="214" cy="51" r="7" fill="#F59E0B"/>
  <circle cx="224" cy="145" r="4" fill="#7C3AED" opacity="0.6"/>
  <defs>
    <linearGradient id="bg" x1="0" y1="0" x2="260" y2="190" gradientUnits="userSpaceOnUse"><stop stop-color="#F7F9FC"/><stop offset="1" stop-color="#F3E8FF"/></linearGradient>
    <linearGradient id="shield" x1="91" y1="35" x2="171" y2="145" gradientUnits="userSpaceOnUse"><stop stop-color="#60A5FA"/><stop offset="0.55" stop-color="#2563EB"/><stop offset="1" stop-color="#7C3AED"/></linearGradient>
  </defs>
</svg>
