<svg width="220" height="160" viewBox="0 0 220 160" fill="none" xmlns="http://www.w3.org/2000/svg">
  <g fill="#60A5FA" opacity="0.35">
    <circle cx="12" cy="12" r="2"/><circle cx="36" cy="12" r="2"/><circle cx="60" cy="12" r="2"/><circle cx="84" cy="12" r="2"/><circle cx="108" cy="12" r="2"/><circle cx="132" cy="12" r="2"/><circle cx="156" cy="12" r="2"/><circle cx="180" cy="12" r="2"/><circle cx="204" cy="12" r="2"/>
    <circle cx="12" cy="36" r="2"/><circle cx="36" cy="36" r="2"/><circle cx="60" cy="36" r="2"/><circle cx="84" cy="36" r="2"/><circle cx="108" cy="36" r="2"/><circle cx="132" cy="36" r="2"/><circle cx="156" cy="36" r="2"/><circle cx="180" cy="36" r="2"/><circle cx="204" cy="36" r="2"/>
    <circle cx="12" cy="60" r="2"/><circle cx="36" cy="60" r="2"/><circle cx="60" cy="60" r="2"/><circle cx="84" cy="60" r="2"/><circle cx="108" cy="60" r="2"/><circle cx="132" cy="60" r="2"/><circle cx="156" cy="60" r="2"/><circle cx="180" cy="60" r="2"/><circle cx="204" cy="60" r="2"/>
  </g>
</svg>
