<svg width="420" height="160" viewBox="0 0 420 160" fill="none" xmlns="http://www.w3.org/2000/svg">
  <path d="M4 118C58 73 103 139 158 98C217 55 260 127 318 82C354 54 381 64 416 31" stroke="#4A90FF" stroke-opacity="0.18" stroke-width="3"/>
  <path d="M4 138C60 91 104 154 161 116C219 77 262 143 321 102C356 77 384 85 416 52" stroke="#9B6DFF" stroke-opacity="0.16" stroke-width="3"/>
  <path d="M4 98C57 55 105 119 157 79C215 35 261 108 317 63C352 36 382 44 416 16" stroke="#2EE67B" stroke-opacity="0.11" stroke-width="3"/>
</svg>
